<?xml version="1.0" encoding="utf-8"?>
<svg width="31px" height="31px" viewbox="0 0 31 31" version="1.1" xmlns:xlink="http://www.w3.org/1999/xlink" xmlns="http://www.w3.org/2000/svg">
  <g id="facebook-copy-2">
    <path d="M6.39375 0L14.9187 0C18.4499 0 21.3125 3.01324 21.3125 6.73026L21.3125 15.7039C21.3125 19.421 18.4499 22.4342 14.9187 22.4342L6.39375 22.4342C2.86258 22.4342 0 19.421 0 15.7039L0 6.73026C0 3.01324 2.86258 0 6.39375 0ZM6.39376 2.24341C4.03964 2.24341 2.13126 4.25224 2.13126 6.73025L2.13126 15.7039C2.13126 18.1819 4.03964 20.1908 6.39376 20.1908L14.9188 20.1908C17.2729 20.1908 19.1813 18.1819 19.1813 15.7039L19.1813 6.73025C19.1813 4.25224 17.2729 2.24341 14.9188 2.24341L6.39376 2.24341ZM17.05 5.60853C17.05 6.22803 16.5729 6.73024 15.9844 6.73024C15.3959 6.73024 14.9188 6.22803 14.9188 5.60853C14.9188 4.98902 15.3959 4.48682 15.9844 4.48682C16.5729 4.48682 17.05 4.98902 17.05 5.60853ZM5.32813 11.2172C5.32813 14.3147 7.71361 16.8257 10.6563 16.8257C13.5989 16.8257 15.9844 14.3147 15.9844 11.2172C15.9844 8.11968 13.5989 5.60864 10.6563 5.60864C7.71361 5.60864 5.32813 8.11968 5.32813 11.2172ZM10.6563 14.5823C12.4218 14.5823 13.8531 13.0757 13.8531 11.2172C13.8531 9.35867 12.4218 7.85205 10.6563 7.85205C8.89067 7.85205 7.45938 9.35867 7.45938 11.2172C7.45938 13.0757 8.89067 14.5823 10.6563 14.5823Z" transform="translate(5.1666565 3.875)" id="icon" fill="#FF5552" fill-rule="evenodd" stroke="none" />
  </g>
</svg>