<svg xmlns="http://www.w3.org/2000/svg" width="76" height="76" viewBox="0 0 76 76"><g><g><path fill="#717cff" d="M0 38C0 17.013 17.013 0 38 0s38 17.013 38 38-17.013 38-38 38S0 58.987 0 38z"/></g><g><path fill="#fff" d="M48.203 27.756a1.512 1.512 0 0 0-.108 2.03c2.231 2.801 3.4 6.632 2.354 10.648-1.215 4.693-4.893 8.2-9.555 9.14-7.847 1.553-14.724-4.509-14.724-12.094 0-6.278 4.693-11.447 10.77-12.201v3.108a9.229 9.229 0 0 0-7.585 10.508c.6 4.016 3.939 7.247 7.97 7.74 5.6.692 10.385-3.678 10.385-9.155a9.167 9.167 0 0 0-1.584-5.17c-.524-.77-1.647-.815-2.308-.17l-.016.016c-.523.523-.569 1.339-.169 1.954a6.15 6.15 0 0 1 .754 5.108 6.138 6.138 0 0 1-4.524 4.262 6.154 6.154 0 0 1-7.539-6c0-2.862 1.97-5.247 4.616-5.94v3.293c-.923.539-1.539 1.508-1.539 2.647a3.086 3.086 0 0 0 3.078 3.077 3.086 3.086 0 0 0 3.077-3.077 3.028 3.028 0 0 0-1.539-2.647V23.186c0-.6-.492-1.092-1.092-1.092-8.247-.308-15.355 6.247-15.802 14.463-.554 10.078 8.324 18.186 18.48 16.001a15.487 15.487 0 0 0 11.923-11.8c1.093-4.863-.307-9.479-3.03-12.88-.57-.722-1.647-.768-2.293-.122z"/></g></g></svg>