<svg xmlns="http://www.w3.org/2000/svg" width="76" height="76" viewBox="0 0 76 76"><g><g><path fill="#ff5959" d="M0 38C0 17.013 17.013 0 38 0s38 17.013 38 38-17.013 38-38 38S0 58.987 0 38z"/></g><g><path fill="#fff" d="M43.66 34.067l-2.578-3.43-2.577 3.43v-6.84h5.154zm5.123 12.431c0 .71-.575 1.285-1.285 1.285H29.512c-.71 0-1.285-.575-1.285-1.285V28.512c0-.71.576-1.285 1.285-1.285h6.424V37.52h3.077l2.062-2.758 2.062 2.759h3.077V27.227h1.284c.71 0 1.285.576 1.285 1.285zm-23.125 0a3.854 3.854 0 0 0 3.854 3.854h17.986a3.854 3.854 0 0 0 3.854-3.854V28.512a3.854 3.854 0 0 0-3.854-3.854H29.512a3.854 3.854 0 0 0-3.854 3.854z"/></g></g></svg>