<svg xmlns="http://www.w3.org/2000/svg" width="76" height="76" viewBox="0 0 76 76"><g><g><path fill="#5c96ff" d="M0 38C0 17.013 17.013 0 38 0s38 17.013 38 38-17.013 38-38 38S0 58.987 0 38z"/></g><g><path fill="#fff" d="M50.063 51.74h-8.994v-7.71a2.57 2.57 0 1 0-5.138 0v7.71h-8.994V33.091l8.709-8.708a3.854 3.854 0 0 1 5.45 0l8.966 8.966zM37.456 26.2l-7.949 7.956V49.17h3.85v-5.14a5.137 5.137 0 0 1 5.135-5.138c2.836 0 5.135 2.3 5.135 5.139v5.139h3.85V34.414l-8.206-8.213a1.283 1.283 0 0 0-1.815 0z"/></g></g></svg>