<svg xmlns="http://www.w3.org/2000/svg" width="76" height="76" viewBox="0 0 76 76"><g><g><path fill="#70ce88" d="M0 38C0 17.013 17.013 0 38 0s38 17.013 38 38-17.013 38-38 38S0 58.987 0 38z"/></g><g><path fill="#fff" d="M30.192 22.083h12.934l6.937 7.345v18.954c0 1.453-1.113 2.63-2.484 2.63H30.192c-1.372 0-2.484-1.177-2.484-2.63V24.713c0-1.452 1.112-2.63 2.484-2.63zm0 2.63v23.67H47.58v-15.78h-4.972c-1.37 0-2.48-1.178-2.48-2.63v-5.26zm12.415 5.26h4.457l-4.457-4.72zm-4.963 11.29l5.33-5.645 1.757 1.86-7.087 7.504-4.604-4.875 1.756-1.86z"/></g></g></svg>