<?xml version="1.0" encoding="utf-8"?>
<svg width="31px" height="31px" viewbox="0 0 31 31" version="1.1" xmlns:xlink="http://www.w3.org/1999/xlink" xmlns="http://www.w3.org/2000/svg">
  <defs>
    <path d="M10.0877 6.24309C10.0877 6.24309 6.89435 6.98365 3.33096 2.81832C3.33096 2.81832 1.94261 5.54891 4.34931 7.21477C4.34931 7.21477 3.56291 7.35366 2.91429 6.89115C2.91429 6.89115 2.63651 9.25118 5.50599 10.1768L3.97875 10.1768C3.97875 10.1768 4.3957 12.0743 7.07962 12.4907C7.07962 12.4907 5.96905 13.9715 2.35901 13.879C2.35901 13.879 4.3957 15.4524 7.49657 15.406C7.49657 15.406 13.2347 15.6838 15.9653 9.20452C16.6367 7.61113 16.567 6.1042 16.5206 5.36336L18.2792 3.79028L16.5206 4.11417C16.5206 4.11417 17.7239 3.23499 17.8631 2.40193L15.9192 3.1886C15.9192 3.1886 14.4614 1.8697 11.9852 2.40193C11.985 2.40193 9.71771 2.86471 10.0877 6.24309ZM11.8975 0.148278C13.5721 -0.180981 15.0761 0.0578764 16.3427 0.669169C16.4118 0.702502 16.4785 0.736108 16.5429 0.76985L17.784 0.267563C19.0623 -0.249735 20.4132 0.832262 20.1886 2.19193C20.7973 2.86062 20.8938 3.97791 20.0712 4.71374L18.7982 5.85242C18.8138 7.25257 18.6218 8.50791 18.0322 9.90722C16.981 12.4014 15.4737 14.2773 13.6296 15.5821C12.3262 16.5043 10.9316 17.0899 9.52612 17.4051C8.61769 17.6088 7.84703 17.6723 7.27999 17.6581C5.54901 17.6777 3.95459 17.3116 2.53203 16.6889C1.68561 16.3184 1.0638 15.9356 0.690123 15.6469C-0.660792 14.6033 0.1083 12.4407 1.8148 12.4844C2.1424 12.4928 2.44925 12.488 2.73623 12.4714C2.19284 11.8271 1.9044 11.1793 1.78727 10.6462C1.74658 10.4611 1.73643 10.2776 1.75305 10.1004C1.64028 9.96435 1.53516 9.82318 1.43772 9.67715C0.747243 8.64231 0.543518 7.57847 0.600705 6.6701C0.607307 6.58043 0.607307 6.58043 0.613253 6.52672C0.644306 6.26289 0.729069 6.02474 0.853537 5.81848C0.48788 4.65362 0.570885 3.48229 0.915374 2.37945C1.02742 2.02076 1.14537 1.74022 1.2411 1.55195C1.81145 0.430199 3.33872 0.248141 4.15677 1.20439C5.44482 2.71002 6.71707 3.60523 7.93045 4.03901C8.08099 4.09282 8.22561 4.13803 8.36396 4.17551C8.7502 1.73749 10.355 0.279327 11.8975 0.148278ZM3.65154 5.33488C3.6519 5.33485 3.65005 5.33507 3.64771 5.33537L3.65154 5.33488Z" transform="translate(5.1666565 6.669922)" id="path_1" />
    <clipPath id="mask_1">
      <use xlink:href="#path_1" />
    </clipPath>
  </defs>
  <g id="facebook-copy">
    <path d="M10.0877 6.24309C10.0877 6.24309 6.89435 6.98365 3.33096 2.81832C3.33096 2.81832 1.94261 5.54891 4.34931 7.21477C4.34931 7.21477 3.56291 7.35366 2.91429 6.89115C2.91429 6.89115 2.63651 9.25118 5.50599 10.1768L3.97875 10.1768C3.97875 10.1768 4.3957 12.0743 7.07962 12.4907C7.07962 12.4907 5.96905 13.9715 2.35901 13.879C2.35901 13.879 4.3957 15.4524 7.49657 15.406C7.49657 15.406 13.2347 15.6838 15.9653 9.20452C16.6367 7.61113 16.567 6.1042 16.5206 5.36336L18.2792 3.79028L16.5206 4.11417C16.5206 4.11417 17.7239 3.23499 17.8631 2.40193L15.9192 3.1886C15.9192 3.1886 14.4614 1.8697 11.9852 2.40193C11.985 2.40193 9.71771 2.86471 10.0877 6.24309ZM11.8975 0.148278C13.5721 -0.180981 15.0761 0.0578764 16.3427 0.669169C16.4118 0.702502 16.4785 0.736108 16.5429 0.76985L17.784 0.267563C19.0623 -0.249735 20.4132 0.832262 20.1886 2.19193C20.7973 2.86062 20.8938 3.97791 20.0712 4.71374L18.7982 5.85242C18.8138 7.25257 18.6218 8.50791 18.0322 9.90722C16.981 12.4014 15.4737 14.2773 13.6296 15.5821C12.3262 16.5043 10.9316 17.0899 9.52612 17.4051C8.61769 17.6088 7.84703 17.6723 7.27999 17.6581C5.54901 17.6777 3.95459 17.3116 2.53203 16.6889C1.68561 16.3184 1.0638 15.9356 0.690123 15.6469C-0.660792 14.6033 0.1083 12.4407 1.8148 12.4844C2.1424 12.4928 2.44925 12.488 2.73623 12.4714C2.19284 11.8271 1.9044 11.1793 1.78727 10.6462C1.74658 10.4611 1.73643 10.2776 1.75305 10.1004C1.64028 9.96435 1.53516 9.82318 1.43772 9.67715C0.747243 8.64231 0.543518 7.57847 0.600705 6.6701C0.607307 6.58043 0.607307 6.58043 0.613253 6.52672C0.644306 6.26289 0.729069 6.02474 0.853537 5.81848C0.48788 4.65362 0.570885 3.48229 0.915374 2.37945C1.02742 2.02076 1.14537 1.74022 1.2411 1.55195C1.81145 0.430199 3.33872 0.248141 4.15677 1.20439C5.44482 2.71002 6.71707 3.60523 7.93045 4.03901C8.08099 4.09282 8.22561 4.13803 8.36396 4.17551C8.7502 1.73749 10.355 0.279327 11.8975 0.148278ZM3.65154 5.33488C3.6519 5.33485 3.65005 5.33507 3.64771 5.33537L3.65154 5.33488Z" transform="translate(5.1666565 6.669922)" id="iconsocialtwitter_24px" fill="#236CD9" stroke="none" />
  </g>
</svg>